<svg width="149" height="21" viewBox="0 0 149 21" fill="none" xmlns="http://www.w3.org/2000/svg">
<path fill-rule="evenodd" clip-rule="evenodd" d="M3.30097 2.86413L0 5.72826L3.30097 8.5929L6.6022 11.457V5.72852V0L3.30097 2.86413ZM7.36615 10.0249V20.0498L13.1431 15.0374L18.92 10.0249L13.1431 5.01245L7.36639 0L7.36615 10.0249Z" fill="url(#paint0_linear)"/>
<path d="M112.897 19.3998C110.39 18.7702 108.855 17.1165 108.276 14.4911C107.886 12.8079 107.869 11.0525 108.227 9.36133C108.822 6.60996 110.534 4.96578 113.048 4.19359C115.319 3.49506 117.64 3.50694 119.963 3.82294C120.722 3.92748 121.47 4.11281 122.216 4.26012C122.29 4.26997 122.366 4.27552 122.441 4.27675V0H126.465V19.2454H125.967C125.151 19.2454 124.336 19.2454 123.52 19.2454C123.241 19.2454 123.137 19.1575 123.108 18.8629C123.047 18.2736 123.033 18.2831 122.488 18.4352C120.658 18.9607 118.791 19.331 116.905 19.5424C116.905 19.5424 115.916 19.6137 115.04 19.6137C114.322 19.5918 113.606 19.5204 112.897 19.3998ZM122.461 11.4712C122.461 10.3093 122.461 9.1475 122.461 7.98327C122.497 7.77574 122.369 7.57609 122.173 7.53421C119.983 6.80008 117.654 6.64988 115.396 7.09703C113.884 7.41066 112.737 8.2375 112.325 9.89355C112.045 11.039 112.051 12.2413 112.341 13.3839C112.683 14.7786 113.517 15.7218 114.875 15.9974C115.697 16.1731 116.539 16.2228 117.374 16.1447C118.951 15.9618 120.517 15.6196 122.092 15.3607C122.38 15.3131 122.472 15.1848 122.468 14.8855C122.448 13.7498 122.461 12.6093 122.461 11.4712ZM29.9131 19.2929C27.4191 18.6466 25.8825 16.9811 25.3012 14.3628C24.8605 12.5057 24.9041 10.5576 25.4274 8.72457C26.083 6.47453 27.4551 4.92302 29.618 4.25062C32.5313 3.33725 35.6345 3.34386 38.5443 4.26962C41.0361 5.04657 42.3744 6.92121 42.6853 9.59418C42.7934 10.5042 42.7979 11.4261 42.8588 12.3432C42.8768 12.6117 42.7529 12.6663 42.5321 12.6616C41.899 12.6616 41.2659 12.6616 40.6328 12.6616H29.1539C29.1764 13.612 29.3792 14.4602 30.0032 15.1421C30.6566 15.8549 31.5105 16.1471 32.4094 16.3134C33.7966 16.5287 35.2043 16.5543 36.5977 16.3895C38.2559 16.2374 39.9074 15.9927 41.5543 15.7883C41.7323 15.7646 41.9103 15.7456 42.1491 15.7194V17.0215C42.1491 17.4563 42.1333 17.8911 42.1491 18.3235C42.1626 18.5991 42.0702 18.706 41.8111 18.7393C39.7339 19.0149 37.6701 19.3262 35.5861 19.5851C34.6849 19.6612 32.8375 19.7467 31.871 19.635C30.9765 19.5329 29.9131 19.2929 29.9131 19.2929ZM38.862 9.89593C38.8845 8.36818 38.159 7.23009 36.85 6.7644C36.355 6.59104 35.8436 6.47473 35.3248 6.4175C33.973 6.26307 32.6212 6.27732 31.3257 6.7739C30.0303 7.27048 29.1674 8.57964 29.2327 9.89593H38.862ZM93.3977 19.6564C92.6993 19.5519 91.9964 19.4759 91.3092 19.3333C89.5541 18.9769 87.977 18.2641 86.8641 16.7102C86.1138 15.6767 85.7669 14.4768 85.6249 13.1985C85.4081 11.5865 85.5304 9.94382 85.9832 8.38719C86.7019 6.092 88.3172 4.82323 90.4576 4.18171C92.5979 3.5402 94.8126 3.57584 97.0183 3.68989C98.2238 3.73905 99.4155 3.97934 100.553 4.40268C102.77 5.24852 104.158 6.85231 104.609 9.29956C104.922 10.9332 104.904 12.6181 104.557 14.244C103.987 16.8575 102.365 18.4185 99.9584 19.1123C99.1462 19.3425 98.3172 19.5014 97.4801 19.5875C97.0431 19.6327 95.8039 19.7515 95.1798 19.7515C94.5558 19.7515 93.979 19.723 93.4022 19.6683L93.3977 19.6564ZM95.1866 16.5392C96.0502 16.5173 96.9093 16.4019 97.7505 16.1946C99.1023 15.8953 100.087 15.0779 100.454 13.6143C100.723 12.5087 100.747 11.3527 100.524 10.2357C100.229 8.64617 99.3366 7.59123 97.8451 7.17544C95.9667 6.63673 93.9821 6.66885 92.1203 7.2681C91.0037 7.59799 90.1473 8.54492 89.8876 9.73674C89.6325 10.7929 89.6018 11.8955 89.7975 12.9657C90.0836 14.6788 91.0546 15.7622 92.652 16.1637C93.4797 16.3949 94.3306 16.521 95.1866 16.5392ZM74.9097 19.5875C74.3233 19.5437 73.7419 19.4434 73.1727 19.2882C70.8341 18.6039 69.4102 16.9953 68.874 14.5362C68.4457 12.7158 68.4596 10.811 68.9145 8.99781C69.6175 6.32959 71.3545 4.78283 73.8486 4.08905C75.7591 3.55683 77.7079 3.61386 79.6568 3.68276C80.6413 3.72077 81.6236 3.83007 82.6059 3.89422C82.8785 3.91085 82.9799 4.01539 82.9732 4.31477C82.9551 5.14398 82.9732 5.97795 82.9732 6.80479C82.9732 6.91646 82.9574 7.02813 82.9461 7.17544L82.4572 7.1398C80.612 6.99962 78.7668 6.80004 76.9171 7.0115C76.3257 7.07696 75.7425 7.20919 75.1778 7.40591C73.8756 7.86447 73.1141 8.84812 72.8685 10.2571C72.6589 11.3898 72.6951 12.5579 72.9744 13.6737C73.3484 15.1421 74.3059 15.9452 75.696 16.216C77.0861 16.4869 78.4627 16.3491 79.8415 16.1661C80.968 16.0164 82.0945 15.8074 83.2683 15.6149C83.2683 15.7432 83.2908 15.8525 83.2908 15.9855C83.2908 16.7649 83.2796 17.5442 83.2908 18.3235C83.2908 18.6229 83.2097 18.7559 82.9213 18.7987C81.2361 19.0577 79.5712 19.2905 77.8702 19.5115C76.8858 19.6012 75.8971 19.6266 74.9097 19.5875ZM47.1665 19.2478V4.07717C47.3039 4.07717 47.4323 4.05103 47.5607 4.05103C48.3763 4.05103 49.1919 4.06529 50.0075 4.05103C50.3409 4.05103 50.4851 4.13895 50.5212 4.49772C50.573 5.02518 50.5933 5.01806 51.0777 4.88975C53.0242 4.37417 54.9776 3.87996 56.985 3.70177C58.5621 3.56396 60.1256 3.56396 61.6329 4.17696C63.5096 4.9349 64.5212 6.3985 64.742 8.47272C64.8039 9.12006 64.8333 9.7704 64.8299 10.421C64.8299 13.1938 64.8299 15.9642 64.8299 18.7369V19.2145H60.8308V18.7607C60.8308 16.2208 60.8308 13.6785 60.8308 11.1362C60.8372 10.6133 60.7934 10.0911 60.7002 9.57755C60.4343 8.228 59.6232 7.4558 58.3323 7.20157C57.2476 7.02356 56.142 7.04204 55.0632 7.25622C53.8984 7.4463 52.7471 7.73142 51.5868 7.94763C51.2714 8.00703 51.179 8.14721 51.179 8.48222C51.1903 11.8917 51.179 15.3013 51.179 18.7132C51.179 19.2406 51.179 19.2406 50.6586 19.2406H47.1665V19.2478ZM135.29 19.2929C132.796 18.6466 131.259 16.9811 130.678 14.3628C130.237 12.5057 130.281 10.5576 130.804 8.72457C131.462 6.47453 132.832 4.92302 134.995 4.25062C137.908 3.33725 141.011 3.34386 143.921 4.26962C146.413 5.04657 147.751 6.92121 148.062 9.59418C148.17 10.5042 148.175 11.4261 148.235 12.3432C148.253 12.6117 148.13 12.6663 147.909 12.6616C147.276 12.6616 146.643 12.6616 146.009 12.6616H134.519C134.542 13.612 134.745 14.4602 135.369 15.1421C136.022 15.8549 136.876 16.1471 137.775 16.3134C139.162 16.5287 140.57 16.5542 141.963 16.3895C143.621 16.2374 145.273 15.9927 146.92 15.7883C147.098 15.7646 147.276 15.7456 147.514 15.7194V17.0215C147.514 17.4563 147.499 17.8911 147.514 18.3235C147.528 18.5991 147.436 18.706 147.176 18.7393C145.101 19.0149 143.038 19.3262 140.954 19.5851C140.039 19.6612 138.203 19.7467 137.236 19.635C136.367 19.5329 135.29 19.2929 135.29 19.2929ZM144.232 9.89593C144.254 8.36818 143.529 7.23009 142.22 6.7644C141.725 6.59055 141.214 6.47423 140.695 6.4175C139.343 6.26307 137.991 6.27732 136.696 6.7739C135.4 7.27048 134.537 8.57964 134.605 9.89593H144.232Z" fill="white"/>
<defs>
<linearGradient id="paint0_linear" x1="-5.92817" y1="15.5399" x2="16.1888" y2="21.0292" gradientUnits="userSpaceOnUse">
<stop stop-color="#FFA469"/>
<stop offset="1" stop-color="#C84F00"/>
</linearGradient>
</defs>
</svg>
